<svg width="35" height="35" viewBox="0 0 35 35" fill="none" xmlns="http://www.w3.org/2000/svg">
<g clip-path="url(#clip0_469_123)">
<path d="M32.2986 26.4115C32.193 26.1255 31.9655 25.9012 31.6779 25.7997C29.0596 24.8755 27.231 21.7742 27.231 18.2579C27.231 14.8502 28.9152 11.8591 31.4218 10.8149C31.6941 10.7014 31.9045 10.4761 31.9989 10.1966C32.0934 9.91703 32.0628 9.61044 31.9151 9.35498L29.2493 4.7453C28.9949 4.30568 28.4573 4.11845 27.9852 4.30486C27.4202 4.52778 26.8154 4.64085 26.1873 4.64085C23.8314 4.64085 21.9149 3.01895 21.9149 1.02539C21.9149 0.459102 21.4557 0 20.8895 0H14.1112C13.5449 0 13.0858 0.459102 13.0858 1.02539C13.0858 3.01895 11.1692 4.64085 8.81336 4.64085C8.18535 4.64085 7.5805 4.52778 7.01545 4.30479C6.54342 4.11852 6.00564 4.30582 5.75141 4.7453L3.08567 9.35505C2.93801 9.61044 2.90753 9.9171 3.00193 10.1966C3.09633 10.4762 3.30668 10.7015 3.57895 10.8149C6.08555 11.8591 7.76965 14.8503 7.76965 18.258C7.76965 21.7743 5.94104 24.8756 3.32281 25.7998C3.03522 25.9012 2.80772 26.1256 2.70211 26.4116C2.59649 26.6978 2.62377 27.016 2.77641 27.28L6.1684 33.1456C6.31592 33.4007 6.56605 33.58 6.85507 33.6378C7.14417 33.6956 7.44392 33.6263 7.67819 33.4474C8.57848 32.7603 9.77019 32.3819 11.0339 32.3819C12.881 32.3819 14.5776 33.2151 15.3562 34.5047C15.5418 34.8121 15.8748 35.0001 16.234 35.0001H18.7666C19.0947 35.0001 19.4029 34.8431 19.5958 34.5778L20.0178 33.9977C20.909 32.9852 22.3816 32.3819 23.9668 32.3819C25.2305 32.3819 26.4222 32.7603 27.3225 33.4474C27.5568 33.6263 27.8566 33.6956 28.1456 33.6378C28.4346 33.58 28.6848 33.4007 28.8323 33.1456L32.2243 27.28C32.3769 27.016 32.4041 26.6977 32.2986 26.4115ZM27.5901 31.1969C26.5137 30.6337 25.2623 30.3311 23.9668 30.3311C21.7776 30.3311 19.7109 31.2125 18.4384 32.6888C18.4199 32.7102 18.4024 32.7322 18.3858 32.7551L18.2446 32.9492H16.7749C15.5355 31.3212 13.3928 30.3311 11.034 30.3311C9.7384 30.3311 8.48702 30.6337 7.41063 31.1969L5.11581 27.2286C6.33254 26.5456 7.40762 25.4918 8.21426 24.1747C9.26508 22.4588 9.8205 20.4129 9.8205 18.2578C9.8205 14.495 8.0826 11.1076 5.39888 9.4515L7.11422 6.48525C7.6639 6.62238 8.23245 6.69156 8.81336 6.69156C11.9093 6.69156 14.4927 4.6872 15.0328 2.05071H19.9678C20.5079 4.68713 23.0913 6.69156 26.1872 6.69156C26.7682 6.69156 27.3368 6.62231 27.8864 6.48525L29.6018 9.4515C26.9181 11.1076 25.1801 14.495 25.1801 18.2578C25.1801 20.4128 25.7355 22.4588 26.7863 24.1747C27.593 25.4918 28.6681 26.5456 29.8848 27.2286L27.5901 31.1969Z" fill="black" stroke="black"/>
</g>
<defs>
<clipPath id="clip0_469_123">
<rect width="35" height="35" fill="white"/>
</clipPath>
</defs>
</svg>
