<svg width="46" height="35" viewBox="0 0 46 35" fill="none" xmlns="http://www.w3.org/2000/svg">
<path fill-rule="evenodd" clip-rule="evenodd" d="M4.0986 0.236114C2.67597 0.573287 1.29199 1.67169 0.60628 3.00758C0.0640934 4.06452 0 4.81356 0 10.101C0 15.7442 0.0315866 16.0595 0.697053 17.0408C1.35792 18.016 2.01173 18.4663 3.61867 19.0535L4.324 19.3114L3.24975 20.5589L2.17519 21.8067L6.83775 28.4013C9.40209 32.0285 11.5773 34.9979 11.6717 35C11.7665 35.0024 13.7534 30.8201 16.0874 25.7061L20.3314 16.4079H22.992H25.653L29.9077 25.7061C32.2475 30.8201 34.2381 35.0024 34.331 35C34.4239 34.9979 36.5979 32.0285 39.1623 28.4013L43.8248 21.8067L42.7503 20.5589L41.676 19.3114L42.3813 19.0535C43.9883 18.4663 44.6421 18.016 45.3029 17.0408C45.9684 16.0595 46 15.7442 46 10.101C46 4.77179 45.939 4.07031 45.3805 2.98228C44.2262 0.732728 41.3065 -0.445548 38.598 0.24465C36.2952 0.831502 32.7299 2.34604 29.5832 4.07428L26.5546 5.73789H22.9862H19.4181L16.6857 4.21268C13.6071 2.49389 10.1001 0.970822 7.82 0.362326C6.14039 -0.0861207 5.543 -0.106547 4.0986 0.236114ZM8.36648 3.32707C9.41528 3.67796 11.8901 4.78399 13.8662 5.78484C17.8578 7.80696 17.6266 7.48838 17.8759 11.3015C17.9446 12.3518 17.8664 13.0545 17.6812 13.0545C17.5113 13.0545 14.6019 12.4948 11.216 11.8107C7.50291 11.0604 4.60368 10.6254 3.91 10.7147L2.76 10.8626V7.66703C2.76 4.54163 2.77963 4.452 3.65639 3.58041C4.74689 2.49633 5.72516 2.4439 8.36648 3.32707ZM42.3436 3.58041C43.2204 4.452 43.24 4.54163 43.24 7.66703V10.8626L42.09 10.7147C41.3963 10.6254 38.4971 11.0604 34.784 11.8107C31.3981 12.4948 28.4887 13.0545 28.3188 13.0545C28.1336 13.0545 28.0554 12.3518 28.1241 11.3015C28.3725 7.50424 28.1621 7.80147 31.9798 5.85739C35.9524 3.83466 38.9706 2.70485 40.4269 2.69571C41.1513 2.69114 41.7073 2.94783 42.3436 3.58041ZM25.4533 10.1202C25.4533 11.0214 25.3672 12.1875 25.2617 12.7115L25.07 13.6642H23H20.93L20.7383 12.7115C20.6328 12.1875 20.5467 11.0214 20.5467 10.1202V8.48161H23H25.4533V10.1202ZM9.16535 14.1194C11.2544 14.5297 13.0208 14.9217 13.0901 14.9909C13.275 15.1748 8.15059 16.1028 5.81133 16.3088C3.57113 16.5067 2.76 16.0854 2.76 14.7245C2.76 13.1834 3.86645 13.0789 9.16535 14.1194ZM42.6469 13.6749C43.3814 14.0657 43.4191 15.2717 42.7187 15.968C42.2924 16.3918 41.8321 16.454 40.1887 16.3088C37.8335 16.1012 32.7256 15.1742 32.9124 14.9885C33.1136 14.7885 40.2233 13.4096 41.1902 13.3831C41.665 13.37 42.3206 13.5014 42.6469 13.6749ZM16.8676 17.2463C16.8697 17.82 11.2041 29.7982 11.0268 29.5946C10.9167 29.468 9.65356 27.7075 8.21989 25.6823C5.67364 22.0859 5.62549 21.985 6.14591 21.3457C8.33643 18.6569 8.03283 18.8239 12.3574 17.9246C17.2245 16.9125 16.8664 16.9664 16.8676 17.2463ZM34.1053 18.0548C37.9252 18.8187 37.6823 18.6794 39.8541 21.3457C40.3745 21.985 40.3264 22.0859 37.7801 25.6823C36.3464 27.7075 35.0833 29.468 34.9732 29.5946C34.7947 29.7997 29.1303 17.8182 29.1324 17.2405C29.133 17.1115 29.444 17.0804 29.8233 17.1713C30.2027 17.2621 32.1298 17.6597 34.1053 18.0548Z" fill="#1D1A1A"/>
</svg>
