<svg width="35" height="42" viewBox="0 0 35 42" fill="none" xmlns="http://www.w3.org/2000/svg">
<path fill-rule="evenodd" clip-rule="evenodd" d="M13.7821 0.0942504C13.4489 0.214281 13.1201 0.501369 12.9197 0.847241C12.775 1.09709 12.7531 1.20007 12.754 1.6275C12.7553 2.21682 12.8784 2.50083 13.2928 2.87101C13.6683 3.20636 13.8933 3.25868 14.9592 3.25868H15.8773V4.91689V6.57503L15.5892 6.61122C11.6247 7.10907 8.14613 8.77423 5.36157 11.5069C3.84325 12.997 2.77672 14.454 1.89219 16.2466C0.748678 18.564 0.168699 20.7655 0.0112678 23.3869C-0.0339293 24.1391 0.0625924 25.9469 0.198184 26.888C0.739638 30.6453 2.45822 34.0983 5.1351 36.8074C6.60385 38.2938 7.97153 39.2901 9.78026 40.1912C11.4851 41.0406 12.9614 41.5124 14.9182 41.8332C15.789 41.9759 16.0895 41.9959 17.4243 41.9997C19.0525 42.0043 19.5073 41.9612 20.9826 41.6625C24.0189 41.0478 26.6015 39.7515 29.077 37.5998C31.0367 35.8965 32.797 33.3714 33.7715 30.8657C34.6285 28.6621 35.0025 26.6472 35 24.2486C34.9969 21.3046 34.385 18.7249 33.0774 16.1434C32.6113 15.2231 31.8045 13.9422 31.301 13.3228L31.0007 12.9534L31.8912 12.0301C32.9103 10.9735 33.0689 10.7161 33.0689 10.1183C33.0689 8.96862 31.9888 8.21366 30.8881 8.59412C30.641 8.6795 30.4248 8.86127 29.642 9.64208L28.6948 10.5867L27.9673 10.0326C25.6028 8.23231 22.8004 7.07152 19.8549 6.67247C19.49 6.62304 19.1828 6.5826 19.1724 6.5826C19.1619 6.5826 19.1533 5.83472 19.1533 4.92064V3.25868L20.1089 3.25733C21.1758 3.25585 21.4182 3.19202 21.8129 2.80891C22.1564 2.47535 22.2747 2.18161 22.2761 1.65828C22.2776 1.10657 22.1117 0.714346 21.7403 0.391803C21.2798 -0.00811398 21.3225 -0.00417453 17.4894 0.00118067C14.6466 0.00518168 13.9831 0.0218013 13.7821 0.0942504ZM19.578 9.93662C24.2101 10.6518 28.1341 13.5366 30.2508 17.7831C30.9363 19.1584 31.3873 20.5796 31.6189 22.0942C31.7582 23.006 31.8072 24.8682 31.7146 25.7334C31.4084 28.5926 30.3438 31.1794 28.5386 33.4509C28.0444 34.0728 26.915 35.1852 26.2791 35.6763C23.428 37.8783 20.0579 38.9384 16.6205 38.7142C13.1561 38.4884 10.0577 37.0879 7.57447 34.6253C6.14757 33.2104 5.14244 31.7352 4.38374 29.9424C3.24544 27.2526 2.94586 24.0394 3.56303 21.1401C4.11007 18.5705 5.49061 16.0217 7.38361 14.0865C8.5338 12.9107 9.68344 12.0662 11.1453 11.3233C12.7897 10.4876 14.3651 10.0367 16.393 9.82133C16.8997 9.76747 18.9676 9.84232 19.578 9.93662ZM23.3091 16.2866C23.0276 16.3729 22.7624 16.6259 19.6212 19.8063C15.8825 23.5916 15.9085 23.5602 15.908 24.2838C15.907 25.483 17.1763 26.2646 18.2507 25.7265C18.436 25.6338 19.5218 24.5719 21.8379 22.2187C25.5002 18.4977 25.4615 18.5447 25.4615 17.8162C25.4615 17.3413 25.2651 16.902 24.9179 16.6005C24.4606 16.2033 23.9229 16.0984 23.3091 16.2866Z" fill="#1D1A1A"/>
</svg>
