<svg width="36" height="37" viewBox="0 0 36 37" fill="none" xmlns="http://www.w3.org/2000/svg">
<path fill-rule="evenodd" clip-rule="evenodd" d="M0.468814 0.472643C0.0433918 0.901528 0.00131699 1.25807 0.00131699 4.44219C0.00131699 7.53204 0.0513392 7.98591 0.428843 8.33043C0.786946 8.65704 1.42975 8.72043 4.38925 8.72043C7.77509 8.72043 7.93732 8.69852 8.28607 8.19658C8.48616 7.90861 8.65001 7.21933 8.65001 6.66485V5.65697H18H27.3499V6.66485C27.3499 8.23475 27.8225 8.72043 29.3501 8.72043H30.6224V18.5V28.2795H29.4536C27.8709 28.2795 27.3499 28.8047 27.3499 30.4003V31.5786H18H8.65001V30.4003C8.65001 28.8085 8.12805 28.2795 6.55773 28.2795H5.40044L5.33055 20.1302C5.26417 12.3792 5.23845 11.9649 4.80695 11.6467C4.20949 11.2068 3.39652 11.2223 2.93977 11.6828C2.62024 12.0052 2.57255 13.105 2.57255 20.1662V28.2795H1.67379C0.134787 28.2795 0.00131699 28.624 0.00131699 32.5987C0.00131699 37.2019 -0.198538 36.9986 4.32567 36.9986C7.40343 36.9986 7.75803 36.9552 8.18252 36.5273C8.4719 36.2355 8.65001 35.7418 8.65001 35.2312V34.4064H18H27.3499V35.2312C27.3499 35.7418 27.528 36.2355 27.8174 36.5273C28.2419 36.9552 28.5965 36.9986 31.6742 36.9986C36.2029 36.9986 35.9986 37.2083 35.9986 32.5577C35.9986 28.5971 35.8714 28.2795 34.2855 28.2795H33.4274V18.5V8.72043H34.3261C35.8651 8.72043 35.9986 8.37591 35.9986 4.40118C35.9986 -0.202027 36.1985 0.00134041 31.6742 0.00134041C28.5965 0.00134041 28.2419 0.0447002 27.8174 0.472643C27.5058 0.786766 27.3499 1.25807 27.3499 1.88655V2.82915H18H8.65001V1.88655C8.65001 1.25807 8.4941 0.786766 8.18252 0.472643C7.75803 0.0447002 7.40343 0.00134041 4.32567 0.00134041C1.2479 0.00134041 0.893302 0.0447002 0.468814 0.472643ZM5.84503 4.36089V5.89262H4.32567H2.8063V4.36089V2.82915H4.32567H5.84503V4.36089ZM33.1936 4.36089V5.89262H31.6742H30.1549V4.36089V2.82915H31.6742H33.1936V4.36089ZM5.84503 32.639V34.1707H4.32567H2.8063V32.639V31.1073H4.32567H5.84503V32.639ZM33.1936 32.639V34.1707H31.6742H30.1549V32.639V31.1073H31.6742H33.1936V32.639Z" fill="#1D1A1A"/>
</svg>
