<svg width="35" height="35" viewBox="0 0 35 35" fill="none" xmlns="http://www.w3.org/2000/svg">
<g clip-path="url(#clip0_469_109)">
<path d="M17.5 33C26.0604 33 33 26.0604 33 17.5C33 8.93959 26.0604 2 17.5 2C8.93959 2 2 8.93959 2 17.5C2 26.0604 8.93959 33 17.5 33Z" stroke="black" stroke-width="3"/>
<path d="M11.6223 17.5C12.8031 17.5 13.7602 16.5428 13.7602 15.3621C13.7602 14.1813 12.8031 13.2241 11.6223 13.2241C10.4416 13.2241 9.48438 14.1813 9.48438 15.3621C9.48438 16.5428 10.4416 17.5 11.6223 17.5Z" fill="black"/>
<path d="M23.3821 17.5C24.5628 17.5 25.52 16.5428 25.52 15.3621C25.52 14.1813 24.5628 13.2241 23.3821 13.2241C22.2013 13.2241 21.2441 14.1813 21.2441 15.3621C21.2441 16.5428 22.2013 17.5 23.3821 17.5Z" fill="black"/>
<path d="M21.9425 21.4178C21.757 21.1692 21.4802 21.0045 21.1732 20.9599C20.8662 20.9153 20.5541 20.9945 20.3054 21.18C20.283 21.1967 20.2612 21.2145 20.2402 21.2334C19.4339 21.8224 18.4613 22.1398 17.4628 22.1398C16.4643 22.1398 15.4916 21.8224 14.6853 21.2334C14.4503 21.0328 14.1454 20.9334 13.8373 20.9567C13.5292 20.9801 13.2428 21.1245 13.0407 21.3582C12.8386 21.592 12.7372 21.8962 12.7587 22.2045C12.7801 22.5128 12.9226 22.8001 13.1551 23.0036C13.1761 23.0218 13.1979 23.0396 13.2203 23.0571C14.4385 23.9882 15.9292 24.4927 17.4625 24.4927C18.9958 24.4927 20.4865 23.9882 21.7047 23.0571C21.8281 22.9652 21.9321 22.8498 22.0109 22.7176C22.0897 22.5855 22.1416 22.439 22.1637 22.2868C22.1857 22.1345 22.1776 21.9794 22.1397 21.8303C22.1017 21.6812 22.0347 21.541 21.9425 21.4178Z" fill="black"/>
</g>
<defs>
<clipPath id="clip0_469_109">
<rect width="35" height="35" fill="white"/>
</clipPath>
</defs>
</svg>
