<svg width="35" height="35" viewBox="0 0 35 35" fill="none" xmlns="http://www.w3.org/2000/svg">
<path d="M29.5311 18.5932C29.2409 18.5932 29.7979 18.4125 21.9027 21.4491C17.4542 13.4345 16.4129 1.13293 16.4027 1.00557C16.3198 -0.0242449 14.9771 -0.375266 14.4024 0.486734L12.8217 2.85788L10.4504 1.27716C9.82243 0.858399 8.9661 1.18796 8.7827 1.92192L8.06541 4.7912L6.07557 3.4647C5.44886 3.04662 4.59164 3.37399 4.40783 4.10946L3.69054 6.97873L1.70063 5.65217C0.943355 5.14728 -0.0669831 5.73803 0.00349445 6.64672C0.0255059 6.93054 0.565948 13.6781 2.618 20.547C4.61865 27.2439 8.35854 34.9993 15.3125 34.9993C16.1917 34.9993 17.064 34.7859 17.8389 34.3816L29.6331 29.5255C29.97 29.3812 29.97 29.3812 30.2263 29.2813C33.4155 27.9682 33.2742 28.0614 33.4896 27.8356C36.7933 24.3719 34.3194 18.5932 29.5311 18.5932ZM16.8995 32.4033C16.5259 32.5568 16.4749 32.5721 16.3688 32.6389C16.0318 32.7538 15.6783 32.8118 15.3125 32.8118C6.90353 32.8118 3.49107 17.125 2.43336 8.76959L3.76847 9.65968C4.39525 10.0778 5.25247 9.75033 5.43621 9.01493L6.1535 6.14565L8.14334 7.47215C8.77128 7.89098 9.62768 7.56122 9.81108 6.82739L10.5284 3.95811L12.5182 5.28461C13.0207 5.61984 13.6999 5.48394 14.035 4.98123L14.5709 4.17727C15.3921 10.0584 17.0268 17.0434 19.842 22.2415L14.9197 24.1347C14.4279 24.3239 14.1408 24.837 14.237 25.3551C14.3333 25.8733 14.7853 26.2492 15.3124 26.2492C17.1217 26.2492 18.5936 27.7211 18.5936 29.5304C18.5937 30.7276 17.9459 31.8239 16.8995 32.4033ZM32.051 26.1643C25.9487 28.6768 23.3446 29.7491 20.6147 30.8731C21.1594 28.7153 20.3486 26.4268 18.5111 25.0973C29.4596 20.8865 18.7239 25.0154 29.7202 20.7862C32.4169 20.9402 33.7631 24.1169 32.051 26.1643Z" fill="black"/>
<path d="M6.96899 14.1402L12.4377 11.9527C12.9985 11.7284 13.2713 11.0919 13.0469 10.531C12.8227 9.97017 12.186 9.69755 11.6252 9.9217L6.15655 12.1092C5.59574 12.3335 5.32292 12.97 5.54727 13.5309C5.77046 14.0889 6.40558 14.3655 6.96899 14.1402Z" fill="black"/>
<path d="M14.1407 14.9058C13.9164 14.3451 13.2798 14.0722 12.719 14.2965L7.2503 16.484C6.68949 16.7083 6.41667 17.3448 6.64102 17.9057C6.81206 18.3334 7.22282 18.5935 7.65683 18.5935C7.95262 18.5935 7.59291 18.703 13.5314 16.3276C14.0922 16.1032 14.365 15.4667 14.1407 14.9058Z" fill="black"/>
<path d="M24.0625 16.4058C24.6666 16.4058 25.1562 15.9162 25.1562 15.3121V14.2184H27.3437C27.9478 14.2184 28.4374 13.7287 28.4374 13.1246C28.4374 12.5205 27.9478 12.0309 27.3437 12.0309H25.1562V10.9372H27.8906C30.0014 10.9372 31.7186 9.21992 31.7186 7.10908C31.7186 4.99824 30.0014 3.28101 27.8906 3.28101H24.0625C23.4584 3.28101 22.9688 3.77066 22.9688 4.37474V15.3121C22.9688 15.9162 23.4584 16.4058 24.0625 16.4058ZM25.1562 5.46848H27.8906C28.7951 5.46848 29.5312 6.20449 29.5312 7.10908C29.5312 8.01366 28.7951 8.74968 27.8906 8.74968H25.1562V5.46848Z" fill="black"/>
</svg>
