<svg width="35" height="34" viewBox="0 0 35 34" fill="none" xmlns="http://www.w3.org/2000/svg">
<path d="M31.3278 6.60575C32.1586 7.64985 32.8619 8.78418 33.4234 9.98597L17.4935 21.4016L10.8359 17.3445V12.4637L17.4935 16.5208L31.3278 6.60575Z" fill="#21A038"/>
<path d="M4.04015 17C4.04015 16.781 4.04565 16.5634 4.05663 16.3471L0.0219735 16.1549C0.00824079 16.4353 4.8757e-06 16.7183 4.8757e-06 17.004C-0.00171176 19.2359 0.449883 21.4461 1.3289 23.5079C2.2079 25.5698 3.49701 27.4426 5.12229 29.019L7.98417 26.2382C6.7331 25.0269 5.74061 23.5871 5.06376 22.0017C4.38691 20.4163 4.03905 18.7165 4.04015 17Z" fill="url(#paint0_linear_474_1747)"/>
<path d="M17.4874 3.92657C17.7126 3.92657 17.9364 3.93459 18.1588 3.94526L18.3607 0.0216962C18.0715 0.00834619 17.7803 0.001672 17.4874 0.001672C15.1904 -0.00105107 12.9156 0.437327 10.7934 1.29163C8.67125 2.14594 6.74358 3.39935 5.12109 4.9799L7.98298 7.76204C9.22906 6.54542 10.7102 5.58024 12.3414 4.92202C13.9725 4.2638 15.7213 3.92549 17.4874 3.92657Z" fill="url(#paint1_linear_474_1747)"/>
<path d="M17.4919 30.0737C17.2667 30.0737 17.0428 30.0737 16.8191 30.0564L16.6172 33.9786C16.9074 33.9928 17.199 34 17.4919 34C19.788 34.0023 22.0617 33.5636 24.1827 32.7091C26.3037 31.8546 28.2302 30.601 29.8514 29.0204L26.995 26.2397C25.7487 27.4556 24.2677 28.4203 22.6369 29.0782C21.0061 29.7362 19.2576 30.0746 17.4919 30.0737Z" fill="url(#paint2_linear_474_1747)"/>
<path d="M25.0665 6.20778L28.4667 3.7714C25.3588 1.32496 21.4795 -0.00679106 17.4805 2.60425e-05V3.92626C20.1884 3.923 22.8335 4.71854 25.0665 6.20778Z" fill="url(#paint3_linear_474_1747)"/>
<path d="M34.9768 16.9999C34.979 15.9785 34.8871 14.9589 34.7021 13.9534L30.938 16.6501C30.938 16.7663 30.938 16.8824 30.938 16.9999C30.939 18.8265 30.5451 20.633 29.782 22.3022C29.0187 23.9714 27.9032 25.466 26.5078 26.6893L29.2228 29.6063C31.0369 28.0142 32.4867 26.0692 33.4779 23.8976C34.4692 21.7258 34.9798 19.3758 34.9768 16.9999Z" fill="#21A038"/>
<path d="M17.4912 30.0736C15.6121 30.0743 13.7537 29.6912 12.0364 28.9493C10.3193 28.2075 8.78145 27.1232 7.52264 25.7669L4.52344 28.4049C6.161 30.1687 8.16164 31.5783 10.3956 32.5422C12.6296 33.506 15.047 34.0026 17.4912 33.9998V30.0736Z" fill="url(#paint4_linear_474_1747)"/>
<path d="M8.47032 7.31049L5.75675 4.39351C3.94207 5.98533 2.49184 7.93018 1.5001 10.1019C0.508377 12.2736 -0.00270379 14.6238 1.0757e-05 16.9999H4.04016C4.03933 15.1733 4.43327 13.3668 5.19643 11.6977C5.95961 10.0285 7.07499 8.53385 8.47032 7.31049Z" fill="url(#paint5_linear_474_1747)"/>
<defs>
<linearGradient id="paint0_linear_474_1747" x1="5.93938" y1="28.5291" x2="1.7436" y2="16.0523" gradientUnits="userSpaceOnUse">
<stop offset="0.14" stop-color="#F1E813"/>
<stop offset="0.3" stop-color="#E6E418"/>
<stop offset="0.58" stop-color="#C9DA26"/>
<stop offset="0.89" stop-color="#A2CC39"/>
</linearGradient>
<linearGradient id="paint1_linear_474_1747" x1="6.27463" y1="5.6741" x2="17.5607" y2="1.24987" gradientUnits="userSpaceOnUse">
<stop offset="0.06" stop-color="#0FA7DF"/>
<stop offset="0.54" stop-color="#0098F8"/>
<stop offset="0.92" stop-color="#0290EA"/>
</linearGradient>
<linearGradient id="paint2_linear_474_1747" x1="16.3508" y1="31.6303" x2="29.1711" y2="28.6511" gradientUnits="userSpaceOnUse">
<stop offset="0.12" stop-color="#A2CC39"/>
<stop offset="0.28" stop-color="#86C239"/>
<stop offset="0.87" stop-color="#219F38"/>
</linearGradient>
<linearGradient id="paint3_linear_474_1747" x1="16.6401" y1="1.315" x2="27.5764" y2="4.78664" gradientUnits="userSpaceOnUse">
<stop offset="0.06" stop-color="#0290EA"/>
<stop offset="0.79" stop-color="#0C89CA"/>
</linearGradient>
<linearGradient id="paint4_linear_474_1747" x1="5.5369" y1="27.9269" x2="17.4162" y2="32.4939" gradientUnits="userSpaceOnUse">
<stop offset="0.13" stop-color="#F1E813"/>
<stop offset="0.3" stop-color="#EAE616"/>
<stop offset="0.53" stop-color="#D8DF1F"/>
<stop offset="0.8" stop-color="#BAD52D"/>
<stop offset="0.98" stop-color="#A2CC39"/>
</linearGradient>
<linearGradient id="paint5_linear_474_1747" x1="1.50511" y1="17.4751" x2="6.07587" y2="5.24415" gradientUnits="userSpaceOnUse">
<stop offset="0.07" stop-color="#A2CC39"/>
<stop offset="0.26" stop-color="#81C45E"/>
<stop offset="0.92" stop-color="#0FA7DF"/>
</linearGradient>
</defs>
</svg>
