<svg width="18" height="18" viewBox="0 0 18 18" fill="none" xmlns="http://www.w3.org/2000/svg">
<path d="M15.1873 3.9375L2.81226 3.93754" stroke="black" stroke-linecap="round" stroke-linejoin="round"/>
<path d="M7.3125 7.3125V11.8125" stroke="black" stroke-linecap="round" stroke-linejoin="round"/>
<path d="M10.6875 7.3125V11.8125" stroke="black" stroke-linecap="round" stroke-linejoin="round"/>
<path d="M14.0623 3.9375V14.625C14.0623 14.7742 14.003 14.9173 13.8975 15.0227C13.792 15.1282 13.6489 15.1875 13.4998 15.1875H4.49976C4.35057 15.1875 4.2075 15.1282 4.10201 15.0227C3.99652 14.9173 3.93726 14.7742 3.93726 14.625V3.9375" stroke="black" stroke-linecap="round" stroke-linejoin="round"/>
<path d="M11.8125 3.9375V2.8125C11.8125 2.51413 11.694 2.22798 11.483 2.017C11.272 1.80603 10.9859 1.6875 10.6875 1.6875H7.3125C7.01413 1.6875 6.72798 1.80603 6.51701 2.017C6.30603 2.22798 6.1875 2.51413 6.1875 2.8125V3.9375" stroke="black" stroke-linecap="round" stroke-linejoin="round"/>
</svg>
