<svg width="128" height="34" viewBox="0 0 128 34" fill="none" xmlns="http://www.w3.org/2000/svg">
<path fill-rule="evenodd" clip-rule="evenodd" d="M19.6432 25.747H14.0689C5.37388 25.747 11.6908 8.218 19.0112 8.218H27.8183C29.23 8.218 31.7197 8.4645 32.9462 5.1495L34.8414 0H22.7644C16.2243 0 11.1333 2.1865 7.45467 5.855C1.10016 12.133 -1.05468 21.938 0.468627 26.6285C1.91788 30.967 5.85679 33.8235 12.0251 33.894L16.8188 33.9295H22.7274L24.1767 29.803C25.2541 26.8755 22.8385 25.747 19.6432 25.747ZM87.4959 18.4815L89.317 12.8735H69.8827C66.6499 12.8735 65.2007 13.72 64.6432 15.4835L62.8221 21.0915H82.2569C85.4897 21.0915 86.939 20.245 87.4959 18.4815ZM59.9241 28.357L58.103 33.9645H77.5373C80.7331 33.9645 82.2194 33.1185 82.7769 31.355L84.5979 25.747H65.1631C61.9679 25.747 60.5186 26.5935 59.9241 28.357ZM92.0299 5.643L93.8504 0.0354996H74.4161C71.1833 0.0354996 69.7341 0.881497 69.1766 2.645L67.3555 8.253H86.7904C89.9861 8.253 91.4348 7.4065 92.0299 5.643ZM62.6735 6.772C61.8563 1.552 58.9207 0.0354996 51.786 0.0354996H38.7803L31.1997 21.0915H35.9934C38.8543 21.0915 40.3036 21.1265 41.8274 17.247L44.9856 8.218H49.8163C53.9414 8.218 53.0121 13.1205 50.9313 17.8815C49.0732 22.079 45.8404 25.782 41.9385 25.782H33.875C30.6422 25.782 29.156 26.6285 28.5614 28.392L26.5547 34H32.4628L38.2598 33.9645C43.3878 33.9295 47.5869 33.577 52.4922 29.3795C57.6941 24.9005 63.7144 13.4025 62.6735 6.772ZM128 0H116.741L106.15 10.6865C104.924 11.921 103.66 13.1555 102.434 14.6015H102.323L107.599 0H98.4209L86.0472 33.9645H95.2251L99.164 23.278L103.252 19.998L106.485 29.662C107.488 32.66 108.529 33.9645 110.758 33.9645H117.781L110.572 14.9895L128 0Z" fill="#00B33C"/>
</svg>
