<svg width="28" height="29" viewBox="0 0 28 29" fill="none" xmlns="http://www.w3.org/2000/svg">
<path fill-rule="evenodd" clip-rule="evenodd" d="M14 2C7.37258 2 2 7.37258 2 14C2 16.5798 2.81292 18.9667 4.19665 20.9224C4.36744 21.1638 4.41658 21.418 4.42918 21.5969C4.44201 21.7788 4.42188 21.9499 4.39591 22.0899C4.3443 22.3679 4.24225 22.6629 4.13364 22.9352C3.92536 23.4573 3.61864 24.0751 3.33546 24.6456C3.32081 24.6751 3.30623 24.7044 3.29173 24.7337C3.13258 25.0544 2.98262 25.3583 2.85211 25.637C3.13781 25.4974 3.45025 25.336 3.78093 25.164C3.81269 25.1475 3.84464 25.1309 3.87673 25.1142C4.44555 24.8182 5.06181 24.4976 5.58683 24.2774C5.86239 24.1618 6.16023 24.0533 6.44277 23.9959C6.6631 23.9512 7.15669 23.8729 7.60254 24.1545C9.45372 25.3234 11.6463 26 14 26C20.6274 26 26 20.6274 26 14C26 7.37258 20.6274 2 14 2ZM1.72106 26.0812C1.72158 26.0807 1.7302 26.0795 1.74536 26.0794C1.72813 26.0817 1.72055 26.0818 1.72106 26.0812ZM2.42018 26.759C2.42021 26.7765 2.41891 26.7866 2.41824 26.7873C2.41758 26.7879 2.41757 26.7791 2.42018 26.759ZM0 14C0 6.26801 6.26801 0 14 0C21.732 0 28 6.26801 28 14C28 21.732 21.732 28 14 28C11.3479 28 8.86531 27.2616 6.74998 25.9788C6.65705 26.0056 6.52844 26.0513 6.36027 26.1218C5.91415 26.3089 5.36458 26.5947 4.76206 26.9081L4.70364 26.9384C4.1063 27.2491 3.45128 27.5884 2.90075 27.8068C2.62942 27.9144 2.32463 28.0171 2.03127 28.0589C1.7981 28.0921 1.24148 28.1379 0.8076 27.7215C0.358951 27.291 0.409152 26.7111 0.437539 26.496C0.475502 26.2084 0.572569 25.9073 0.674231 25.6393C0.880923 25.0946 1.20417 24.4412 1.50017 23.8447L1.52401 23.7966C1.82448 23.1912 2.09874 22.6385 2.27596 22.1942C2.33538 22.0452 2.37546 21.9287 2.40069 21.8417C0.885309 19.6042 0 16.9041 0 14ZM6.89428 25.9486C6.89372 25.9493 6.88421 25.9508 6.8674 25.951C6.88643 25.948 6.89483 25.9479 6.89428 25.9486Z" fill="black"/>
<circle cx="9.5" cy="14.5" r="1.5" fill="black"/>
<circle cx="14.5" cy="14.5" r="1.5" fill="black"/>
<circle cx="19.5" cy="14.5" r="1.5" fill="black"/>
</svg>
