<svg width="52" height="34" viewBox="0 0 52 34" fill="none" xmlns="http://www.w3.org/2000/svg">
<path d="M33.6766 0C23.4823 0 15.4062 7.63765 15.4062 17C15.4062 26.3623 23.6146 34 33.6766 34C43.7386 34 51.947 26.3623 51.947 17C52.0794 7.63765 43.7386 0 33.6766 0ZM33.6766 23.2825C29.9696 23.2825 26.7922 20.4492 26.7922 17C26.7922 13.5507 29.8372 10.7174 33.6766 10.7174C37.5161 10.7174 40.5612 13.5507 40.5612 17C40.4288 20.4492 37.5161 23.2825 33.6766 23.2825Z" fill="#8B3FFD"/>
<path d="M15.4063 5.05078V29.8116H8.91893L0.578125 5.05078H15.4063Z" fill="#8B3FFD"/>
</svg>
