<svg width="24" height="34" viewBox="0 0 24 34" fill="none" xmlns="http://www.w3.org/2000/svg">
<path d="M11.784 3.8147e-06C14.2172 3.8147e-06 14.9817 1.65955 15.6232 3.31651C15.8926 4.02012 22.2156 20.4856 22.4057 20.9798C22.4563 21.1177 22.4221 21.344 22.1992 21.4259C21.9749 21.5065 18.6896 22.7213 18.5077 22.7863C18.3258 22.8526 18.122 22.7564 18.0564 22.5834C17.988 22.413 16.6244 18.8234 16.4712 18.4228H7.09953C6.95182 18.8234 5.57179 22.4209 5.51024 22.5834C5.44733 22.7486 5.25174 22.8605 5.05752 22.7863C4.86331 22.7135 1.56573 21.4987 1.36878 21.4259C1.18003 21.3557 1.09386 21.1515 1.15951 20.9798C1.39203 20.3633 7.61927 4.16189 7.93658 3.31651C8.55479 1.68427 9.34534 3.8147e-06 11.784 3.8147e-06ZM0.658928 29.4622C0.461975 29.4622 0.304688 29.6183 0.304688 29.8082V33.6566C0.304688 33.8465 0.461975 34 0.658928 34H22.8995C23.1005 34 23.2578 33.8465 23.2578 33.6566V29.8082C23.2578 29.6183 23.1005 29.4622 22.8995 29.4622H0.658928ZM11.7621 5.37664L8.59446 14.4222H14.9817L11.8031 5.37664H11.7621Z" fill="#EE2A23"/>
</svg>
