<svg width="14" height="11" viewBox="0 0 14 11" fill="none" xmlns="http://www.w3.org/2000/svg">
<path opacity="0.8" fill-rule="evenodd" clip-rule="evenodd" d="M4.89453 0.0191742C3.11793 0.156034 1.51063 0.879985 0.680887 1.91701C0.240762 2.46707 0.0237617 3.02819 0.0171992 3.63316C0.0136992 3.95453 0.0147656 3.96033 0.120203 4.19008C0.37018 4.73493 1.14825 5.36426 2.13371 5.81872C2.80678 6.12912 3.64044 6.38369 4.375 6.5032C4.85166 6.58073 5.89086 6.5967 6.38477 6.53411C8.647 6.2473 10.535 5.19995 10.8592 4.05201C11.0053 3.53454 10.7953 2.70032 10.3639 2.08429C9.87916 1.39201 8.97859 0.765803 7.94336 0.401077C7.0726 0.0942959 5.87171 -0.056124 4.89453 0.0191742ZM6.11133 2.19053C7.09808 2.41374 7.73361 3.1472 7.61045 3.92065C7.50673 4.57183 6.92727 5.09371 6.09722 5.28343C5.77544 5.35699 5.15607 5.35734 4.84028 5.28416C3.83111 5.0503 3.20327 4.32652 3.32834 3.54116C3.4385 2.84939 4.07436 2.32009 4.99023 2.15779C5.26775 2.10861 5.82061 2.12476 6.11133 2.19053ZM5.09994 3.02898C4.7183 3.10322 4.3403 3.30432 4.20834 3.50336C4.11072 3.6506 4.1172 3.84279 4.22461 3.98548C4.42173 4.24737 4.87689 4.43624 5.37305 4.462C5.87431 4.48806 6.40765 4.31479 6.65927 4.04416C6.85251 3.83629 6.85336 3.63375 6.66184 3.42942C6.41977 3.17117 6.04841 3.03234 5.55078 3.01404C5.37783 3.00769 5.17494 3.01439 5.09994 3.02898ZM0.000464844 6.91646C0.00101172 8.54493 0.00689062 8.61125 0.186949 9.0146C0.509141 9.73631 1.29475 10.379 2.28851 10.7338C2.78234 10.9101 2.96868 10.9454 3.49316 10.9622L3.96484 10.9773V10.1449C3.96484 9.37271 3.96878 9.30382 4.01953 9.19108C4.08212 9.05201 4.23896 8.94107 4.37298 8.94107C4.51052 8.94107 4.66788 9.04439 4.73011 9.17561C4.78155 9.28405 4.78516 9.34782 4.78516 10.1458V11H5.46875H6.15234V10.1563C6.15234 9.37271 6.15623 9.30394 6.20703 9.19108C6.26962 9.05201 6.42646 8.94107 6.56048 8.94107C6.69802 8.94107 6.85538 9.04439 6.91761 9.17561C6.96905 9.28405 6.97266 9.34782 6.97266 10.1458V11H7.65625H8.33984V10.1563C8.33984 9.37271 8.34373 9.30394 8.39453 9.19108C8.45712 9.05201 8.61396 8.94107 8.74798 8.94107C8.88552 8.94107 9.04288 9.04439 9.10511 9.17561C9.15655 9.28405 9.16016 9.34782 9.16016 10.1458V11H9.84375H10.5273V10.1563C10.5273 9.37271 10.5312 9.30394 10.582 9.19108C10.6446 9.05201 10.8015 8.94107 10.9355 8.94107C11.073 8.94107 11.2304 9.04439 11.2926 9.17561C11.344 9.28405 11.3477 9.34782 11.3477 10.1458V11H12.5109C13.6227 11 13.6788 10.9974 13.782 10.9408C13.8514 10.9027 13.9095 10.8402 13.945 10.7655C13.9979 10.6539 14 10.5945 14 9.2352C14 7.87677 13.9978 7.81645 13.945 7.70515C13.9148 7.64141 13.8502 7.56582 13.8015 7.5372C13.7181 7.48813 13.4498 7.48413 9.20117 7.46866C5.12003 7.45381 4.65976 7.44743 4.37831 7.4016C3.29104 7.22459 2.21648 6.86951 1.33085 6.39458C0.848231 6.13577 0.548816 5.92893 0.0638477 5.51932L0 5.46538L0.000464844 6.91646ZM10.7598 5.66504C10.5644 5.85555 10.0649 6.20865 9.70296 6.41214L9.39258 6.58662L10.1514 6.58729L10.9102 6.588V6.05856C10.9102 5.76737 10.9071 5.52971 10.9033 5.53044C10.8996 5.53115 10.835 5.59174 10.7598 5.66504Z" fill="black"/>
</svg>
