<svg width="35" height="34" viewBox="0 0 35 34" fill="none" xmlns="http://www.w3.org/2000/svg">
<path fill-rule="evenodd" clip-rule="evenodd" d="M24.2204 29.4528C27.3041 29.4528 30.6497 30.4186 34.3539 33.416C34.725 33.7161 35.219 33.3431 34.8946 32.9701C31.2553 28.7725 27.8892 27.9734 24.5323 27.2982C20.4252 26.471 18.3136 24.3602 16.8417 22.0431C16.5491 21.5826 16.4171 21.6638 16.3909 22.2566C16.3579 22.9807 16.4137 23.9403 16.5913 24.8842C16.4251 24.8905 16.2589 24.8894 16.0904 24.8894C10.2166 24.8894 5.45377 20.5386 5.45377 15.172C5.45377 9.80638 10.2166 5.4566 16.0915 5.4566C21.9653 5.4566 26.7281 9.80638 26.7281 15.172C26.7281 15.5543 26.7077 15.9325 26.6598 16.3024C25.8835 16.1743 24.3547 16.1597 23.2824 16.2441C22.8794 16.2764 22.9363 16.4483 23.2414 16.4983C26.7577 17.0786 29.1722 19.0696 29.7254 22.6817C29.7368 22.7651 29.8574 22.789 29.9041 22.7172C31.3993 20.4386 32.1868 17.8299 32.1819 15.172C32.1819 7.05587 24.9774 0.474415 16.0915 0.474415C7.20453 0.474415 0 7.05482 0 15.172C0 23.2902 7.20453 29.8716 16.0915 29.8716C18.4479 29.8716 20.7883 29.4528 24.2204 29.4528ZM25.4179 24.1164C26.1339 24.6686 26.3514 25.326 25.9734 25.7896C25.7628 26.0438 25.4213 26.1845 25.0115 26.1845C24.6118 26.1846 24.2246 26.0562 23.9176 25.8219C23.2665 25.302 23.0752 24.4602 23.4998 23.982C23.666 23.7944 23.9358 23.6913 24.2591 23.6913C24.6518 23.6913 25.0639 23.8424 25.4179 24.1164ZM28.7214 22.7119C28.8261 23.3558 28.6041 23.6225 28.3799 23.6225C28.1351 23.6225 27.8289 23.3621 27.4681 22.8463C27.1106 22.3379 26.9797 21.7545 27.1573 21.4596C27.2734 21.2648 27.5182 21.1794 27.8266 21.2867C28.4243 21.4919 28.6576 22.3275 28.7214 22.7119Z" fill="#FF8C00"/>
</svg>
