<svg width="129" height="24" viewBox="0 0 129 24" fill="none" xmlns="http://www.w3.org/2000/svg">
<path fill-rule="evenodd" clip-rule="evenodd" d="M0 12V24H2.08537H4.17074V19.0526V14.1053L6.01282 12.2682C7.02603 11.2578 7.89522 10.4726 7.94457 10.5232C8.03466 10.6159 12.9471 18.617 15.0628 22.1171L16.1964 23.9924L18.4555 23.9962C19.6981 23.9983 20.7147 23.9652 20.7147 23.9227C20.7147 23.8526 11.3205 8.46884 10.897 7.84537C10.7316 7.60167 11.0115 7.28717 14.4648 3.8375C16.5259 1.77851 18.2122 0.0727936 18.2122 0.0469474C18.2122 0.0211013 17.0938 0 15.7268 0H13.2411L8.81459 4.41758C6.37999 6.84725 4.3391 8.83517 4.27946 8.83517C4.21968 8.83517 4.17074 6.84725 4.17074 4.41758V0H2.08537H0V12ZM38.8456 11.8824C36.0995 18.4176 33.8311 23.8192 33.805 23.8858C33.7769 23.9571 34.6275 23.992 35.8717 23.9706L37.986 23.9341L38.8291 21.9218L39.6721 19.9094L45.9318 19.9437L52.1914 19.978L53.0318 21.9878L53.8721 23.9976L55.939 23.9988C57.8404 23.9999 58.0005 23.9815 57.9391 23.7692C57.8488 23.4558 48.2454 0.521407 48.0828 0.230769C47.9688 0.0269011 47.714 0 45.8963 0H43.8385L38.8456 11.8824ZM72.1127 0.0830776C72.0589 0.134111 72.0148 5.53622 72.0148 12.088V24H74.1688H76.3225L76.3584 15.6104L76.3941 7.22084L84.1555 15.6104L91.9168 24H93.0183H94.1198V12V0H92.0344H89.949L89.9485 8.47253L89.9478 16.9451L89.2058 16.1538C88.7978 15.7187 85.2849 11.9209 81.3993 7.71429L74.3346 0.0659341L73.2726 0.0280896C72.6884 0.00725442 72.1665 0.0319127 72.1127 0.0830776ZM116.016 0.137011C113.94 0.444 112.353 1.09015 111.183 2.10435C109.63 3.45086 108.962 4.91776 108.958 6.98901C108.955 9.04866 109.656 10.3543 111.339 11.424C112.671 12.2702 114.245 12.7449 118.086 13.4579C119.988 13.8112 121.934 14.2228 122.408 14.3727C124.049 14.8905 124.844 15.7193 124.844 16.9113C124.844 18.1666 123.748 19.3085 121.954 19.9226C121.15 20.1978 120.782 20.241 119.283 20.236C118.076 20.2319 117.27 20.1593 116.642 19.9979C115.319 19.6581 113.089 18.5806 112.065 17.7864L111.172 17.0942L110.147 18.1404C109.584 18.7159 109.018 19.3291 108.89 19.503C108.664 19.812 108.671 19.8295 109.209 20.2789C110.868 21.6641 113.499 22.952 115.849 23.5291C122.391 25.1363 128.59 22.1693 128.982 17.2439C129.124 15.4526 128.435 13.654 127.218 12.6371C126.465 12.0079 124.418 11.0418 123.245 10.7615C122.787 10.6519 121.191 10.3505 119.7 10.0917C115.69 9.3956 114.389 8.98193 113.674 8.17556C112.984 7.3982 112.912 6.42712 113.465 5.37811C114.612 3.20229 120.262 3.11315 123.938 5.21275C124.386 5.46871 124.799 5.63183 124.855 5.57539C125.233 5.19376 127.069 2.97508 127.069 2.8986C127.069 2.65174 124.87 1.51543 123.317 0.959207C121.255 0.221009 117.958 -0.150329 116.016 0.137011ZM48.367 10.7035C49.5979 13.7256 50.605 16.2328 50.605 16.2749C50.605 16.3171 48.5092 16.3516 45.9477 16.3516C42.449 16.3516 41.2904 16.3128 41.2904 16.1953C41.2904 16.0501 45.6803 5.2175 45.8431 4.96114C45.9551 4.78484 45.9741 4.82849 48.367 10.7035Z" fill="#1D1A1A"/>
</svg>
