<svg width="81" height="15" viewBox="0 0 81 15" fill="none" xmlns="http://www.w3.org/2000/svg">
<path fill-rule="evenodd" clip-rule="evenodd" d="M0 7.5V15H1.30176H2.60352V11.9079V8.8158L3.75341 7.66764C4.3859 7.03615 4.92847 6.54536 4.95928 6.57701C5.01551 6.63495 8.08203 11.6356 9.40271 13.8232L10.1104 14.9952L11.5206 14.9976C12.2963 14.9989 12.9308 14.9782 12.9308 14.9517C12.9308 14.9079 7.06666 5.29302 6.80231 4.90335C6.69904 4.75105 6.87374 4.55448 9.02945 2.39844C10.316 1.11157 11.3687 0.045496 11.3687 0.0293421C11.3687 0.0131883 10.6705 0 9.8172 0H8.26558L5.50238 2.76099C3.98261 4.27953 2.70862 5.52198 2.67139 5.52198C2.63407 5.52198 2.60352 4.27953 2.60352 2.76099V0H1.30176H0V7.5ZM24.2488 7.42648C22.5345 11.511 21.1186 14.887 21.1023 14.9286C21.0847 14.9732 21.6157 14.995 22.3924 14.9816L23.7122 14.9588L24.2385 13.7011L24.7647 12.4434L28.6723 12.4648L32.5797 12.4863L33.1043 13.7424L33.6289 14.9985L34.9191 14.9993C36.106 14.9999 36.2059 14.9885 36.1676 14.8558C36.1112 14.6599 30.1164 0.325879 30.015 0.144231C29.9438 0.0168132 29.7847 0 28.65 0H27.3656L24.2488 7.42648ZM45.0153 0.0519235C44.9817 0.0838191 44.9542 3.46014 44.9542 7.55497V15H46.2987H47.6432L47.6656 9.75651L47.6879 4.51302L52.5328 9.75651L57.3777 15H58.0653H58.7529V7.5V0H57.4511H56.1493L56.149 5.29533L56.1486 10.5907L55.6854 10.0962C55.4307 9.82418 53.2378 7.45055 50.8123 4.82143L46.4023 0.0412088L45.7393 0.017556C45.3747 0.00453401 45.0489 0.0199455 45.0153 0.0519235ZM72.4214 0.085632C71.1255 0.2775 70.1348 0.681347 69.4044 1.31522C68.4348 2.15679 68.0177 3.0736 68.0155 4.36813C68.0133 5.65541 68.4509 6.47143 69.5018 7.14C70.3329 7.66888 71.3158 7.96558 73.7132 8.41121C74.901 8.63201 76.1152 8.88923 76.4115 8.98294C77.4357 9.30659 77.9322 9.82459 77.9322 10.5696C77.9322 11.3541 77.2479 12.0678 76.1277 12.4517C75.6258 12.6237 75.3961 12.6506 74.4608 12.6475C73.707 12.6449 73.2039 12.5996 72.8119 12.4987C71.9863 12.2863 70.5942 11.6129 69.9548 11.1165L69.3975 10.6839L68.7578 11.3378C68.4059 11.6974 68.0529 12.0807 67.9732 12.1894C67.8317 12.3825 67.8362 12.3935 68.1722 12.6743C69.2079 13.5401 70.8503 14.345 72.3167 14.7057C76.4005 15.7102 80.2704 13.8558 80.5148 10.7774C80.6036 9.65786 80.1738 8.53376 79.4138 7.89816C78.9436 7.50494 77.6663 6.90115 76.9341 6.72593C76.6478 6.65744 75.6519 6.46904 74.7211 6.30733C72.218 5.87225 71.4057 5.61371 70.9592 5.10972C70.5287 4.62387 70.4834 4.01695 70.8286 3.36132C71.5448 2.00143 75.0716 1.94572 77.3664 3.25797C77.6461 3.41794 77.9036 3.51989 77.9387 3.48462C78.1751 3.2461 79.3207 1.85942 79.3207 1.81162C79.3207 1.65734 77.9485 0.947142 76.9787 0.599504C75.6914 0.138131 73.6337 -0.0939559 72.4214 0.085632ZM30.1924 6.68967C30.9608 8.57852 31.5894 10.1455 31.5894 10.1718C31.5894 10.1982 30.2812 10.2198 28.6822 10.2198C26.4981 10.2198 25.7749 10.1955 25.7749 10.122C25.7749 10.0313 28.5153 3.26093 28.6169 3.10072C28.6868 2.99052 28.6986 3.0178 30.1924 6.68967Z" fill="white"/>
</svg>
